<svg width="74" height="21" viewBox="0 0 74 21" fill="none" xmlns="http://www.w3.org/2000/svg">
<path d="M9.83984 20L4.91797 3.69629V20H0.992188V0.00488281H8.28711L11.7881 11.9727L15.4795 0.00488281H22.7891V20H18.0723V3.69629L13.0479 20H9.83984ZM41.9322 20H37.6988C37.5621 19.4141 37.4937 18.6426 37.4937 17.6855C36.7516 18.7402 36.0094 19.4434 35.2672 19.7949C34.5348 20.1367 33.6998 20.3076 32.7623 20.3076C31.3756 20.3076 30.2525 19.9316 29.3932 19.1797C28.5436 18.4277 28.1187 17.417 28.1187 16.1475C28.1187 15.2197 28.3678 14.3652 28.8658 13.584C29.3639 12.8027 30.1646 12.1924 31.2682 11.7529C32.3717 11.3037 34.3834 10.9717 37.3033 10.7568V9.90723C37.3033 8.47168 36.5855 7.75391 35.15 7.75391C33.6168 7.75391 32.7623 8.47168 32.5865 9.90723L28.5582 9.52637C28.8219 7.84668 29.6178 6.65527 30.9459 5.95215C32.274 5.24902 33.7779 4.89746 35.4576 4.89746C36.4635 4.89746 37.4107 5.01465 38.2994 5.24902C39.1881 5.4834 39.8814 5.83496 40.3795 6.30371C40.8775 6.77246 41.2145 7.27051 41.3902 7.79785C41.566 8.31543 41.6539 9.22363 41.6539 10.5225V17.2314C41.6539 18.5205 41.7467 19.4434 41.9322 20ZM37.3033 12.9102C34.2467 13.2129 32.7184 14.1357 32.7184 15.6787C32.7184 16.1963 32.8795 16.6455 33.2018 17.0264C33.524 17.3975 33.983 17.583 34.5787 17.583C35.3502 17.583 35.9947 17.2656 36.5123 16.6309C37.0396 15.9863 37.3033 15.1953 37.3033 14.2578V12.9102ZM52.5793 8.60352V14.8584C52.5793 15.6396 52.6965 16.1621 52.9309 16.4258C53.1652 16.6895 53.717 16.8213 54.5861 16.8213C54.9865 16.8213 55.4504 16.8018 55.9777 16.7627V20C54.7082 20.2148 53.7951 20.3223 53.2385 20.3223C51.4221 20.3223 50.133 19.9756 49.3713 19.2822C48.6096 18.5791 48.2287 17.3145 48.2287 15.4883V8.60352H45.885V5.20508H48.4777L48.8293 0.839844L52.5793 0.546875V5.20508H55.7727V8.60352H52.5793ZM64.8523 0.00488281V7.22656C65.6531 5.67383 66.9861 4.89746 68.8514 4.89746C69.8475 4.89746 70.6971 5.11719 71.4002 5.55664C72.1131 5.98633 72.6111 6.54297 72.8943 7.22656C73.1873 7.91016 73.3338 8.91113 73.3338 10.2295V20H68.9832V11.665C68.9832 10.6689 68.9441 9.98535 68.866 9.61426C68.7879 9.24316 68.6072 8.93555 68.324 8.69141C68.0506 8.4375 67.7039 8.31055 67.284 8.31055C66.7371 8.31055 66.1951 8.52539 65.658 8.95508C65.1209 9.375 64.8523 10.2783 64.8523 11.665V20H60.6189V0.00488281H64.8523Z" fill="#313080"/>
</svg>
