<svg width="150" height="40" viewBox="0 0 150 40" fill="none" xmlns="http://www.w3.org/2000/svg">
<path d="M147.397 0H74.499C73.0611 0 71.8955 1.16562 71.8955 2.60348V36.4488C71.8955 37.8866 73.0611 39.0522 74.499 39.0522H147.397C148.834 39.0522 150 37.8866 150 36.4488V2.60348C150 1.16562 148.834 0 147.397 0Z" fill="#00856F"/>
<path d="M78.3948 27.179C78.4422 27.0841 78.4761 27.0027 78.4965 26.9349C78.5168 26.8671 78.5304 26.7756 78.5372 26.6603C78.5439 26.5857 78.5473 26.5179 78.5473 26.4569C78.5473 26.3891 78.5304 26.3247 78.4965 26.2637C78.5304 25.7416 78.5405 25.223 78.527 24.7077C78.5134 24.1857 78.5236 23.6704 78.5575 23.1619L78.5066 23.0399L78.588 21.0567L78.5473 20.9347C78.5473 20.8872 78.5473 20.8059 78.5473 20.6906C78.5541 20.5686 78.5609 20.4432 78.5677 20.3143C78.5744 20.1855 78.5812 20.0635 78.588 19.9482C78.5948 19.833 78.5982 19.7516 78.5982 19.7041C78.5914 19.6635 78.5846 19.5618 78.5778 19.399C78.5711 19.2296 78.5643 19.0499 78.5575 18.86C78.5575 18.6634 78.5541 18.4838 78.5473 18.321C78.5473 18.1515 78.5473 18.0431 78.5473 17.9956C78.5473 17.9481 78.5473 17.8464 78.5473 17.6905C78.5473 17.5278 78.5473 17.3413 78.5473 17.1312C78.5541 16.9142 78.5575 16.6803 78.5575 16.4295C78.5575 16.1786 78.5575 15.9345 78.5575 15.6972C78.5643 15.4599 78.5677 15.2396 78.5677 15.0362C78.5677 14.8328 78.5677 14.6701 78.5677 14.548C78.5677 14.5345 78.5677 14.5006 78.5677 14.4463C78.5744 14.3853 78.5778 14.3209 78.5778 14.2531C78.5778 14.1853 78.5778 14.1243 78.5778 14.07C78.5846 14.0158 78.588 13.9819 78.588 13.9683C78.6083 13.5209 78.6016 13.0802 78.5677 12.6463C78.5405 12.2124 78.527 11.7717 78.527 11.3242V11.2428C78.527 11.2225 78.527 11.2021 78.527 11.1818C78.527 11.1615 78.5304 11.1445 78.5372 11.131C78.5372 11.0293 78.5507 10.9648 78.5778 10.9377C78.6117 10.9106 78.649 10.897 78.6897 10.897C78.7372 10.8903 78.7846 10.8835 78.8321 10.8767C78.8795 10.8699 78.9236 10.8293 78.9643 10.7547C79.3236 10.7615 79.6592 10.7615 79.9711 10.7547C80.2898 10.7411 80.5983 10.7309 80.8966 10.7242C81.2017 10.7174 81.5034 10.7174 81.8017 10.7242C82.1068 10.7242 82.4254 10.7411 82.7576 10.775C83.1712 10.7953 83.6051 10.8259 84.0594 10.8665C84.5204 10.9004 84.9713 10.975 85.412 11.0903C85.8527 11.1988 86.2629 11.3581 86.6425 11.5683C87.029 11.7717 87.3544 12.0496 87.6188 12.4022C87.707 12.5242 87.7917 12.6734 87.8731 12.8497C87.9544 13.0192 88.0256 13.2022 88.0867 13.3988C88.1545 13.5887 88.2087 13.7785 88.2494 13.9683C88.2968 14.1582 88.3341 14.3277 88.3612 14.4768C88.3612 14.5107 88.3612 14.5582 88.3612 14.6192C88.3612 14.6735 88.3646 14.7311 88.3714 14.7921C88.3782 14.8531 88.3816 14.9108 88.3816 14.965C88.3816 15.0125 88.3816 15.043 88.3816 15.0565C88.3816 15.0701 88.3748 15.1141 88.3612 15.1887C88.3477 15.2565 88.3341 15.3379 88.3206 15.4328C88.307 15.5277 88.29 15.6226 88.2697 15.7176C88.2561 15.8125 88.246 15.8837 88.2392 15.9311C88.1714 16.2566 88.046 16.5447 87.8629 16.7956C87.6799 17.0396 87.49 17.2871 87.2934 17.538C87.2663 17.5786 87.2154 17.6397 87.1409 17.721C87.0731 17.8024 86.9985 17.8871 86.9171 17.9753C86.8425 18.0634 86.7714 18.1482 86.7036 18.2295C86.6358 18.3041 86.5883 18.3549 86.5612 18.3821C86.5612 18.3956 86.5578 18.4092 86.551 18.4227C86.551 18.4634 86.5917 18.4973 86.673 18.5244C86.7612 18.5516 86.8154 18.5719 86.8358 18.5855C87.0527 18.7278 87.2358 18.8702 87.3849 19.0126C87.5409 19.1482 87.6934 19.3143 87.8426 19.5109C87.8629 19.538 87.8866 19.555 87.9138 19.5618C87.9409 19.5618 87.968 19.5652 87.9951 19.5719C88.0222 19.5719 88.0494 19.5753 88.0765 19.5821C88.1036 19.5821 88.1273 19.5957 88.1477 19.6228C88.1477 19.6431 88.1545 19.6872 88.168 19.755C88.1816 19.816 88.1884 19.8533 88.1884 19.8669C88.2087 19.9211 88.2426 19.9719 88.29 20.0194C88.3375 20.0669 88.385 20.1109 88.4324 20.1516C88.4867 20.1923 88.5307 20.2296 88.5646 20.2635C88.6053 20.2974 88.6324 20.3279 88.646 20.355C88.646 20.3686 88.6426 20.4059 88.6358 20.4669C88.6358 20.5279 88.6358 20.5652 88.6358 20.5788C88.6358 20.6398 88.6528 20.6872 88.6867 20.7211C88.7274 20.755 88.768 20.7855 88.8087 20.8127C88.8494 20.8398 88.8833 20.8703 88.9104 20.9042C88.9443 20.9381 88.9613 20.9788 88.9613 21.0262V21.0669C88.9477 21.0805 88.924 21.111 88.8901 21.1584C88.863 21.1991 88.8426 21.2262 88.8291 21.2398V21.3008C88.8426 21.3347 88.8663 21.3923 88.9002 21.4737C88.9409 21.5551 88.968 21.6127 88.9816 21.6466C88.9952 21.7076 89.0155 21.8161 89.0426 21.972C89.0765 22.1212 89.107 22.2805 89.1342 22.45C89.1681 22.6195 89.1952 22.7822 89.2155 22.9382C89.2426 23.0873 89.2596 23.1924 89.2664 23.2534C89.2731 23.2602 89.2799 23.2805 89.2867 23.3144C89.2935 23.3483 89.3003 23.3856 89.307 23.4263C89.3138 23.467 89.3172 23.5077 89.3172 23.5483C89.324 23.5822 89.3274 23.6026 89.3274 23.6094L89.3782 23.65V23.7721C89.3782 23.7856 89.3748 23.8094 89.3681 23.8433C89.3681 23.8704 89.3681 23.8907 89.3681 23.9043C89.3681 23.9179 89.3477 23.9653 89.307 24.0467C89.2664 24.1213 89.2392 24.1687 89.2257 24.1891C89.2257 24.1958 89.2223 24.2162 89.2155 24.2501C89.2087 24.2772 89.202 24.3111 89.1952 24.3518C89.1952 24.3924 89.1918 24.4331 89.185 24.4738C89.1782 24.5077 89.1748 24.528 89.1748 24.5348C89.0596 24.9959 88.8663 25.406 88.5951 25.7654C88.324 26.1179 88.0155 26.4468 87.6697 26.7519C87.6561 26.7586 87.6324 26.7722 87.5985 26.7925C87.5714 26.8129 87.5409 26.8366 87.507 26.8637C87.4799 26.8841 87.4493 26.9044 87.4154 26.9247C87.3883 26.9451 87.3714 26.9586 87.3646 26.9654C87.2154 27.0536 87.0527 27.1214 86.8764 27.1688C86.7002 27.2095 86.5442 27.2875 86.4086 27.4027C86.3612 27.4163 86.2764 27.4366 86.1544 27.4637C86.0323 27.4841 85.9035 27.5078 85.7679 27.5349C85.6323 27.5553 85.5001 27.579 85.3713 27.6061C85.2493 27.6265 85.1611 27.64 85.1069 27.6468C84.7408 27.701 84.3882 27.7349 84.0492 27.7485C83.7102 27.7621 83.3577 27.7756 82.9916 27.7892C82.3746 27.8163 81.7576 27.8366 81.1406 27.8502C80.5305 27.8638 79.9169 27.8536 79.2999 27.8197C79.2592 27.8332 79.2253 27.8502 79.1982 27.8705C79.1711 27.8841 79.144 27.8977 79.1168 27.9112C79.0965 27.9316 79.0694 27.9451 79.0355 27.9519C79.0084 27.9655 78.9711 27.9722 78.9236 27.9722C78.8694 27.9722 78.8287 27.9722 78.8016 27.9722C78.7812 27.979 78.7541 27.9553 78.7202 27.901C78.7067 27.8807 78.6863 27.84 78.6592 27.779C78.6321 27.718 78.6185 27.6807 78.6185 27.6671C78.605 27.6536 78.6016 27.6061 78.6083 27.5248C78.6219 27.4434 78.6287 27.3959 78.6287 27.3824C78.6083 27.362 78.5711 27.3349 78.5168 27.301C78.4694 27.2603 78.4287 27.24 78.3948 27.24V27.179ZM82.2085 24.1484C82.2085 24.2162 82.2051 24.2806 82.1983 24.3416C82.1983 24.4026 82.2051 24.4602 82.2186 24.5145C82.239 24.5619 82.2661 24.6026 82.3 24.6365C82.3407 24.6704 82.3983 24.6975 82.4729 24.7179C82.4865 24.7179 82.5136 24.7213 82.5543 24.7281C82.6017 24.7281 82.6424 24.7281 82.6763 24.7281C82.6966 24.7281 82.7339 24.7314 82.7882 24.7382C82.8424 24.7382 82.8763 24.7382 82.8899 24.7382C82.8966 24.7382 82.917 24.7348 82.9509 24.7281C82.9916 24.7145 83.0322 24.7009 83.0729 24.6874C83.1136 24.6738 83.1509 24.6636 83.1848 24.6569C83.2187 24.6433 83.2424 24.6331 83.256 24.6264C83.2628 24.6264 83.2865 24.6297 83.3272 24.6365C83.3678 24.6365 83.4119 24.6399 83.4594 24.6467C83.5068 24.6467 83.5475 24.6501 83.5814 24.6569C83.6221 24.6569 83.6458 24.6535 83.6526 24.6467C83.8763 24.6196 84.1035 24.5484 84.334 24.4331C84.5713 24.3111 84.7848 24.1619 84.9747 23.9857C85.1713 23.8026 85.3306 23.5992 85.4527 23.3755C85.5815 23.1517 85.6527 22.9212 85.6662 22.6839C85.673 22.5483 85.6595 22.4263 85.6256 22.3178C85.5984 22.2025 85.5442 22.0873 85.4628 21.972C85.3001 21.7347 85.1171 21.5483 84.9137 21.4127C84.717 21.2703 84.5035 21.1584 84.273 21.0771C84.0424 20.9957 83.7984 20.9347 83.5407 20.894C83.2899 20.8533 83.0322 20.8059 82.7678 20.7516C82.6661 20.7245 82.5339 20.694 82.3712 20.6601C82.2153 20.6262 82.0695 20.6059 81.9339 20.5991C81.9339 20.6127 81.9339 20.633 81.9339 20.6601C81.9339 20.6872 81.9407 20.7076 81.9542 20.7211C81.9542 20.7347 81.9576 20.7754 81.9644 20.8432C81.978 20.9042 81.9847 20.9415 81.9847 20.955C81.9847 20.9686 81.9847 21.0025 81.9847 21.0567C81.9847 21.111 81.9814 21.1686 81.9746 21.2296C81.9746 21.2839 81.9712 21.3381 81.9644 21.3923C81.9644 21.4466 81.9644 21.4805 81.9644 21.494C81.9644 21.6296 81.9847 21.772 82.0254 21.9212C82.0729 22.0703 82.1034 22.2195 82.117 22.3686C82.117 22.3822 82.117 22.4398 82.117 22.5415C82.1237 22.6365 82.1305 22.7483 82.1373 22.8771C82.1441 22.9992 82.1508 23.1246 82.1576 23.2534C82.1644 23.3755 82.1678 23.4704 82.1678 23.5382V23.6704C82.1814 23.6839 82.1983 23.7212 82.2186 23.7823C82.2458 23.8433 82.2661 23.8806 82.2797 23.8941V23.9145C82.2729 23.9619 82.2593 24.0026 82.239 24.0365C82.2186 24.0704 82.2085 24.1077 82.2085 24.1484ZM81.9644 14.5684C81.9508 14.826 81.9576 15.0735 81.9847 15.3108C82.0119 15.5481 82.0458 15.7887 82.0864 16.0328C82.1 16.182 82.1068 16.3311 82.1068 16.4803C82.1068 16.6295 82.1203 16.7718 82.1475 16.9074C82.1542 16.9549 82.1644 16.9888 82.178 17.0091C82.1915 17.0227 82.2051 17.0363 82.2186 17.0498C82.239 17.0566 82.2559 17.0702 82.2695 17.0905C82.2898 17.1041 82.3102 17.1312 82.3305 17.1719C82.3305 17.1854 82.3373 17.2159 82.3509 17.2634C82.3644 17.3108 82.378 17.3346 82.3915 17.3346C82.4187 17.3685 82.4865 17.4125 82.5949 17.4668C82.7034 17.521 82.7848 17.5481 82.839 17.5481C82.8526 17.5481 82.8797 17.5414 82.9204 17.5278C82.9678 17.5142 83.0017 17.5007 83.0221 17.4871C83.0492 17.4803 83.1068 17.4566 83.195 17.4159C83.2899 17.3685 83.3475 17.3346 83.3678 17.3142C83.3882 17.3074 83.4255 17.2905 83.4797 17.2634C83.5339 17.2295 83.5916 17.1956 83.6526 17.1617C83.7204 17.1278 83.7814 17.0973 83.8357 17.0702C83.8967 17.0363 83.9407 17.0091 83.9679 16.9888C84.0492 16.9481 84.1475 16.8905 84.2628 16.8159C84.3848 16.7413 84.5001 16.66 84.6086 16.5718C84.7238 16.4769 84.8221 16.3786 84.9035 16.2769C84.9848 16.1752 85.0255 16.0735 85.0255 15.9718C85.0323 15.9311 85.0323 15.8938 85.0255 15.8599C85.0188 15.826 84.995 15.7921 84.9543 15.7582C84.7577 15.5142 84.5611 15.3074 84.3645 15.1379C84.1679 14.9616 83.9577 14.8192 83.734 14.7107C83.5102 14.5955 83.2695 14.5107 83.0119 14.4565C82.7543 14.3955 82.4695 14.3582 82.1576 14.3446C82.1373 14.3446 82.1034 14.3514 82.0559 14.365C82.0085 14.3717 81.978 14.3819 81.9644 14.3955V14.5684Z" fill="white"/>
<path d="M95.5717 27.596C95.5242 27.5824 95.453 27.5688 95.3581 27.5553C95.2632 27.5349 95.1445 27.5112 95.0022 27.4841C94.9954 27.4841 94.9649 27.4807 94.9106 27.4739C94.8564 27.4604 94.7886 27.4434 94.7072 27.4231C94.6327 27.3959 94.5513 27.362 94.4632 27.3214C94.3818 27.2807 94.3072 27.2298 94.2394 27.1688C94.2259 27.162 94.1954 27.1519 94.1479 27.1383C94.1072 27.118 94.0598 27.0976 94.0055 27.0773C93.9513 27.0502 93.9004 27.0298 93.853 27.0163C93.8123 26.9959 93.7852 26.9824 93.7716 26.9756C93.6496 26.9281 93.5309 26.8637 93.4157 26.7824C93.3072 26.701 93.2021 26.6163 93.1004 26.5281C92.9987 26.44 92.9004 26.3518 92.8055 26.2637C92.7106 26.1688 92.6224 26.0806 92.541 25.9993C92.2156 25.6942 91.9241 25.3721 91.6664 25.0331C91.4088 24.6942 91.1885 24.3213 91.0054 23.9145C90.8562 23.589 90.7376 23.2941 90.6495 23.0297C90.5613 22.7585 90.4935 22.4941 90.4461 22.2364C90.3986 21.972 90.3647 21.7008 90.3444 21.4228C90.3308 21.1449 90.324 20.8262 90.324 20.4669V19.7041C90.4122 19.3177 90.5139 18.955 90.6291 18.616C90.7444 18.2702 90.8834 17.9414 91.0461 17.6295C91.2156 17.3176 91.4088 17.0193 91.6258 16.7345C91.8427 16.4498 92.097 16.1752 92.3885 15.9108C92.5987 15.7074 92.8156 15.5311 93.0394 15.382C93.2631 15.2328 93.5038 15.0972 93.7614 14.9752C93.7818 14.9684 93.8089 14.9548 93.8428 14.9345C93.8835 14.9141 93.9242 14.8972 93.9648 14.8836C94.0123 14.8633 94.053 14.8463 94.0869 14.8328C94.1208 14.8192 94.1445 14.8091 94.1581 14.8023C94.1784 14.8023 94.2292 14.7989 94.3106 14.7921C94.392 14.7785 94.4394 14.7718 94.453 14.7718C94.4733 14.7582 94.514 14.7311 94.575 14.6904C94.636 14.6429 94.6733 14.6124 94.6869 14.5989C94.6937 14.5989 94.714 14.5955 94.7479 14.5887C94.7886 14.5819 94.8293 14.5751 94.87 14.5684C94.9106 14.5548 94.9479 14.5446 94.9818 14.5379C95.0157 14.5311 95.0361 14.5243 95.0428 14.5175C95.07 14.5107 95.131 14.4972 95.2259 14.4768C95.3208 14.4497 95.4225 14.4226 95.531 14.3955C95.6395 14.3684 95.7412 14.3446 95.8361 14.3243C95.9378 14.2972 96.0022 14.2836 96.0293 14.2836C96.0836 14.2633 96.1819 14.2463 96.3242 14.2328C96.4666 14.2124 96.6192 14.1955 96.7819 14.1819C96.9446 14.1684 97.0972 14.1548 97.2395 14.1412C97.3887 14.1277 97.4972 14.1175 97.565 14.1107H97.687C97.7209 14.1107 97.7548 14.1141 97.7887 14.1209C97.8294 14.1209 97.8599 14.1209 97.8802 14.1209C98.0294 14.1277 98.165 14.1345 98.287 14.1412C98.4091 14.148 98.5379 14.1684 98.6735 14.2023C98.8633 14.2497 99.0565 14.2938 99.2532 14.3345C99.4498 14.3751 99.643 14.409 99.8328 14.4362C99.8803 14.4565 99.9583 14.4938 100.067 14.548C100.182 14.6023 100.301 14.6633 100.423 14.7311C100.552 14.7989 100.67 14.8633 100.779 14.9243C100.887 14.9853 100.962 15.0294 101.002 15.0565C101.023 15.0701 101.074 15.1209 101.155 15.2091C101.243 15.2904 101.338 15.382 101.44 15.4837C101.541 15.5854 101.64 15.6871 101.735 15.7887C101.83 15.8904 101.901 15.9684 101.948 16.0227C101.955 16.0362 101.975 16.0667 102.009 16.1142C102.043 16.1616 102.08 16.2193 102.121 16.2871C102.169 16.3481 102.213 16.4091 102.253 16.4701C102.301 16.5311 102.338 16.582 102.365 16.6227C102.609 16.9956 102.809 17.3651 102.965 17.7312C103.128 18.0973 103.257 18.4702 103.352 18.8499C103.447 19.2228 103.514 19.6092 103.555 20.0092C103.602 20.4025 103.626 20.8127 103.626 21.2398V21.2805C103.613 21.3957 103.596 21.5551 103.575 21.7585C103.562 21.9551 103.545 22.1517 103.524 22.3483C103.511 22.5449 103.497 22.7212 103.484 22.8771C103.47 23.0331 103.46 23.1246 103.453 23.1517C103.406 23.4975 103.331 23.8263 103.23 24.1382C103.135 24.4501 103.016 24.7586 102.874 25.0637C102.745 25.2264 102.64 25.3654 102.558 25.4806C102.484 25.5891 102.406 25.6976 102.324 25.8061C102.243 25.9078 102.148 26.023 102.04 26.1518C101.938 26.2739 101.796 26.4298 101.613 26.6196C101.375 26.7959 101.121 26.9586 100.85 27.1078C100.585 27.257 100.311 27.3858 100.026 27.4943C99.7413 27.6027 99.4498 27.6875 99.1515 27.7485C98.8599 27.8095 98.5718 27.8332 98.287 27.8197C98.2599 27.8197 98.2124 27.8197 98.1446 27.8197C98.0836 27.8197 98.0124 27.8197 97.9311 27.8197C97.8565 27.8129 97.7853 27.8095 97.7175 27.8095C97.6565 27.8027 97.6124 27.7993 97.5853 27.7993C97.5717 27.7858 97.548 27.7722 97.5141 27.7587C97.4802 27.7451 97.4565 27.7383 97.4429 27.7383C97.4294 27.7383 97.3989 27.7417 97.3514 27.7485C97.3039 27.7553 97.2497 27.7655 97.1887 27.779C97.1344 27.7858 97.0802 27.7926 97.026 27.7993C96.9785 27.8061 96.948 27.8061 96.9344 27.7993C96.9073 27.7993 96.8429 27.796 96.7412 27.7892C96.6463 27.7756 96.5412 27.7621 96.4259 27.7485C96.3107 27.7282 96.2022 27.7112 96.1005 27.6977C96.0056 27.6841 95.948 27.6739 95.9276 27.6671H95.8259L95.5717 27.596ZM94.2394 20.6093C94.2462 20.7991 94.2631 20.9855 94.2903 21.1686C94.3174 21.3517 94.3682 21.5313 94.4428 21.7076C94.4428 21.7212 94.4598 21.7585 94.4937 21.8195C94.5276 21.8805 94.5445 21.9178 94.5445 21.9313C94.5716 22.0195 94.5988 22.1144 94.6259 22.2161C94.653 22.3178 94.6801 22.4195 94.7072 22.5212C94.7411 22.6229 94.7784 22.7212 94.8191 22.8161C94.8598 22.911 94.9106 22.9958 94.9716 23.0704C94.992 23.0907 95.0259 23.128 95.0733 23.1822C95.1208 23.2297 95.1683 23.2805 95.2157 23.3348C95.2632 23.3822 95.3073 23.4297 95.3479 23.4772C95.3886 23.5178 95.4157 23.5416 95.4293 23.5483C95.4361 23.5551 95.4564 23.5721 95.4903 23.5992C95.531 23.6263 95.5751 23.6568 95.6225 23.6907C95.6768 23.7178 95.7276 23.7484 95.7751 23.7823C95.8293 23.8162 95.8734 23.8399 95.9073 23.8534L96.009 23.9246C96.0293 23.9382 96.0734 23.9687 96.1412 24.0162C96.209 24.0636 96.2497 24.0874 96.2632 24.0874C96.2768 24.1009 96.3107 24.1179 96.3649 24.1382C96.4192 24.1518 96.4632 24.1585 96.4971 24.1585C96.6395 24.2263 96.7446 24.267 96.8124 24.2806C96.887 24.2874 96.948 24.2874 96.9954 24.2806C97.0497 24.267 97.1039 24.2569 97.1582 24.2501C97.2192 24.2365 97.3107 24.2399 97.4328 24.2602C97.4395 24.2602 97.4633 24.2602 97.5039 24.2602C97.5446 24.2535 97.5887 24.2467 97.6362 24.2399C97.6836 24.2331 97.7311 24.2263 97.7785 24.2196C97.826 24.2128 97.8633 24.206 97.8904 24.1992C98.2091 24.1518 98.5074 24.0433 98.7853 23.8738C99.0633 23.7043 99.304 23.4941 99.5074 23.2433C99.7176 22.9924 99.8803 22.7144 99.9956 22.4093C100.111 22.0975 100.168 21.7822 100.168 21.4635C100.168 21.4432 100.168 21.3618 100.168 21.2195C100.175 21.0703 100.192 20.8127 100.219 20.4465C100.219 20.2703 100.182 20.0974 100.107 19.9279C100.04 19.7584 99.9786 19.5855 99.9244 19.4092C99.8294 19.138 99.6735 18.9109 99.4566 18.7278C99.2464 18.538 99.026 18.3651 98.7955 18.2092C98.6531 18.1143 98.5209 18.0363 98.3989 17.9753C98.2836 17.9075 98.165 17.8532 98.0429 17.8126C97.9209 17.7719 97.7921 17.7414 97.6565 17.721C97.5277 17.7007 97.3785 17.6871 97.209 17.6803C97.0531 17.6736 96.9175 17.6736 96.8022 17.6803C96.687 17.6803 96.5514 17.6973 96.3954 17.7312C96.2259 17.7651 96.0497 17.8126 95.8666 17.8736C95.6835 17.9346 95.5073 18.0126 95.3378 18.1075C95.175 18.1956 95.0259 18.3041 94.8903 18.4329C94.7615 18.5617 94.6666 18.7109 94.6055 18.8804L94.4326 19.3685C94.392 19.4228 94.3547 19.5007 94.3208 19.6024C94.2869 19.7041 94.2598 19.816 94.2394 19.9381C94.2191 20.0533 94.2089 20.172 94.2089 20.294C94.2089 20.4093 94.2191 20.5143 94.2394 20.6093Z" fill="white"/>
<path d="M114.63 27.8197C114.549 27.7722 114.511 27.7044 114.518 27.6163C114.532 27.5282 114.535 27.4434 114.528 27.362C114.528 27.3485 114.518 27.3281 114.498 27.301C114.477 27.2739 114.467 27.2536 114.467 27.24V27.1485C114.467 27.0536 114.488 26.9688 114.528 26.8942C114.569 26.8197 114.589 26.7383 114.589 26.6502V26.5891C114.569 26.5891 114.535 26.5959 114.488 26.6095C114.447 26.623 114.42 26.6366 114.406 26.6502C114.359 26.6841 114.281 26.7349 114.172 26.8027C114.071 26.8705 113.959 26.9417 113.837 27.0163C113.715 27.0909 113.596 27.1586 113.481 27.2197C113.366 27.2807 113.277 27.3146 113.216 27.3214L112.423 27.6468H112.362C112.349 27.6468 112.325 27.6502 112.291 27.657C112.257 27.6638 112.22 27.6739 112.179 27.6875C112.145 27.6943 112.108 27.701 112.067 27.7078C112.033 27.7146 112.013 27.718 112.006 27.718H111.386C111.257 27.718 111.142 27.718 111.04 27.718C110.938 27.718 110.84 27.7146 110.745 27.7078C110.657 27.701 110.562 27.6943 110.46 27.6875C110.365 27.6807 110.257 27.6671 110.135 27.6468C110.121 27.64 110.084 27.6299 110.023 27.6163C109.969 27.6027 109.908 27.5892 109.84 27.5756C109.779 27.5621 109.718 27.5519 109.657 27.5451C109.603 27.5315 109.569 27.5248 109.555 27.5248H109.026L108.691 27.3926C108.643 27.3722 108.569 27.3349 108.467 27.2807C108.372 27.2264 108.267 27.1688 108.152 27.1078C108.043 27.0468 107.938 26.9892 107.837 26.9349C107.735 26.8807 107.66 26.8434 107.613 26.823C107.572 26.8027 107.511 26.7756 107.43 26.7417C107.348 26.701 107.264 26.6603 107.175 26.6196C107.094 26.5722 107.016 26.5315 106.942 26.4976C106.867 26.4637 106.82 26.44 106.799 26.4264C106.792 26.4196 106.775 26.4061 106.748 26.3857C106.721 26.3586 106.687 26.3281 106.647 26.2942C106.613 26.2603 106.575 26.2298 106.535 26.2027C106.501 26.1688 106.474 26.1451 106.453 26.1315C106.284 25.962 106.121 25.7755 105.965 25.5722C105.809 25.3688 105.653 25.1755 105.497 24.9925C105.355 24.823 105.236 24.5992 105.142 24.3213C105.047 24.0433 104.969 23.7517 104.908 23.4467C104.847 23.1348 104.803 22.8297 104.775 22.5314C104.748 22.233 104.735 21.9754 104.735 21.7585C104.735 21.4805 104.735 21.2228 104.735 20.9855C104.741 20.7482 104.755 20.5177 104.775 20.294C104.803 20.0635 104.84 19.833 104.887 19.6024C104.935 19.3719 105.003 19.1245 105.091 18.86C105.097 18.8194 105.121 18.7346 105.162 18.6058C105.209 18.4702 105.257 18.338 105.304 18.2092C105.352 18.0736 105.392 17.9651 105.426 17.8837C105.46 17.8024 105.474 17.799 105.467 17.8736C105.575 17.5617 105.718 17.2735 105.894 17.0091C106.07 16.7379 106.27 16.4871 106.494 16.2566C106.718 16.026 106.959 15.8125 107.216 15.6159C107.481 15.4192 107.752 15.2362 108.03 15.0667C108.057 15.0463 108.118 15.0125 108.213 14.965C108.315 14.9108 108.42 14.8565 108.528 14.8023C108.643 14.748 108.752 14.6972 108.853 14.6497C108.962 14.5955 109.037 14.5616 109.077 14.548C109.084 14.5412 109.104 14.5345 109.138 14.5277C109.179 14.5141 109.223 14.5006 109.27 14.487C109.325 14.4734 109.376 14.4633 109.423 14.4565C109.477 14.4429 109.521 14.4328 109.555 14.426C109.596 14.4124 109.65 14.3989 109.718 14.3853C109.786 14.3717 109.826 14.365 109.84 14.365H111.843C112.081 14.4328 112.311 14.4972 112.535 14.5582C112.759 14.6124 112.972 14.6836 113.176 14.7718C113.386 14.8531 113.586 14.9548 113.776 15.0769C113.972 15.1921 114.162 15.3447 114.345 15.5345H114.386C114.386 15.5142 114.386 15.487 114.386 15.4531C114.393 15.4125 114.396 15.3718 114.396 15.3311C114.396 15.2904 114.396 15.2531 114.396 15.2192C114.403 15.1786 114.406 15.1514 114.406 15.1379C114.406 15.1311 114.41 15.1074 114.416 15.0667C114.423 15.026 114.43 14.9819 114.437 14.9345C114.45 14.887 114.46 14.8463 114.467 14.8124C114.481 14.7718 114.488 14.748 114.488 14.7413C114.454 14.6938 114.45 14.6463 114.477 14.5989C114.505 14.5446 114.542 14.5006 114.589 14.4667C114.644 14.4328 114.701 14.4124 114.762 14.4056C114.823 14.3921 114.874 14.3989 114.915 14.426C115.254 14.426 115.552 14.4294 115.81 14.4362C116.067 14.4362 116.318 14.4429 116.562 14.4565C116.806 14.4633 117.057 14.4802 117.315 14.5073C117.579 14.5345 117.881 14.5684 118.22 14.609C118.24 14.6226 118.274 14.6429 118.322 14.6701C118.369 14.6904 118.393 14.7175 118.393 14.7514C118.393 14.8124 118.396 14.887 118.403 14.9752C118.41 15.0633 118.417 15.1582 118.423 15.2599C118.43 15.3548 118.437 15.4498 118.444 15.5447C118.45 15.6328 118.45 15.7108 118.444 15.7786C118.444 15.7921 118.44 15.8328 118.434 15.9006C118.427 15.9684 118.42 16.043 118.413 16.1244C118.406 16.2057 118.4 16.2803 118.393 16.3481C118.386 16.4159 118.383 16.4566 118.383 16.4701C118.383 16.4905 118.372 16.5413 118.352 16.6227C118.332 16.6973 118.322 16.7413 118.322 16.7549C118.322 16.7752 118.322 16.8193 118.322 16.8871C118.328 16.9481 118.332 17.0159 118.332 17.0905C118.332 17.1583 118.332 17.2261 118.332 17.2939C118.332 17.3549 118.328 17.3922 118.322 17.4058C118.322 17.4261 118.315 17.4566 118.301 17.4973C118.288 17.538 118.274 17.5685 118.261 17.5888L118.24 19.9889V20.1516C118.24 20.1923 118.24 20.3415 118.24 20.5991C118.24 20.8567 118.24 21.1788 118.24 21.5652C118.247 21.9449 118.254 22.3686 118.261 22.8365C118.267 23.3043 118.274 23.7721 118.281 24.2399C118.288 24.7009 118.295 25.1382 118.301 25.5518C118.308 25.9654 118.318 26.3112 118.332 26.5891C118.332 26.6095 118.325 26.6637 118.311 26.7519C118.305 26.8332 118.295 26.9247 118.281 27.0264C118.274 27.1281 118.264 27.2231 118.25 27.3112C118.244 27.3926 118.244 27.4434 118.25 27.4637V27.6265C118.237 27.6468 118.189 27.6705 118.108 27.6977C118.033 27.7248 117.989 27.7451 117.976 27.7587C117.793 27.7587 117.633 27.7655 117.498 27.779C117.369 27.7926 117.244 27.8095 117.122 27.8299C117.006 27.8434 116.884 27.857 116.755 27.8705C116.633 27.8841 116.481 27.8875 116.298 27.8807H115.82C115.772 27.8807 115.691 27.8807 115.576 27.8807C115.467 27.8739 115.349 27.8671 115.22 27.8604C115.098 27.8536 114.979 27.8468 114.864 27.84C114.755 27.8332 114.677 27.8265 114.63 27.8197ZM108.62 21.1279C108.62 21.4873 108.677 21.8195 108.792 22.1246C108.915 22.4297 109.07 22.7314 109.26 23.0297C109.274 23.05 109.294 23.0839 109.321 23.1314C109.348 23.1721 109.369 23.1924 109.382 23.1924C109.545 23.3687 109.711 23.5382 109.881 23.7009C110.057 23.8636 110.24 24.0094 110.43 24.1382C110.626 24.2602 110.833 24.3585 111.05 24.4331C111.267 24.5077 111.504 24.545 111.762 24.545C111.979 24.545 112.199 24.5077 112.423 24.4331C112.647 24.3585 112.857 24.2806 113.054 24.1992C113.081 24.1857 113.118 24.1687 113.166 24.1484C113.22 24.1213 113.271 24.0975 113.318 24.0772C113.372 24.0501 113.416 24.0263 113.45 24.006C113.491 23.9857 113.518 23.9721 113.532 23.9653C113.782 23.7755 113.989 23.5517 114.152 23.2941C114.315 23.0297 114.444 22.7517 114.538 22.4602C114.64 22.1619 114.708 21.8568 114.742 21.5449C114.783 21.2262 114.81 20.9211 114.823 20.6296C114.823 20.5957 114.82 20.5381 114.813 20.4567C114.813 20.3754 114.81 20.2906 114.803 20.2025C114.796 20.1143 114.789 20.033 114.783 19.9584C114.776 19.877 114.769 19.8228 114.762 19.7957L114.671 19.6126C114.644 19.5584 114.616 19.5075 114.589 19.4601C114.562 19.4126 114.542 19.3719 114.528 19.338C114.393 19.0804 114.254 18.8329 114.111 18.5956C113.976 18.3516 113.793 18.1583 113.562 18.0159C113.508 17.9753 113.447 17.9312 113.379 17.8837C113.311 17.8295 113.237 17.7787 113.155 17.7312C113.081 17.677 113.006 17.6295 112.932 17.5888C112.857 17.5414 112.789 17.5108 112.728 17.4973C112.701 17.4905 112.65 17.4769 112.576 17.4566C112.508 17.4363 112.433 17.4159 112.352 17.3956C112.271 17.3752 112.193 17.3583 112.118 17.3447C112.05 17.3312 112.003 17.321 111.976 17.3142C111.935 17.2532 111.874 17.2193 111.793 17.2125C111.711 17.199 111.62 17.199 111.518 17.2125C111.423 17.2193 111.328 17.2329 111.233 17.2532C111.138 17.2735 111.06 17.2837 110.999 17.2837C110.898 17.2837 110.789 17.3041 110.674 17.3447C110.559 17.3786 110.447 17.4261 110.338 17.4871C110.237 17.5481 110.135 17.6159 110.033 17.6905C109.938 17.7651 109.854 17.8431 109.779 17.9244C109.765 17.938 109.735 17.9719 109.687 18.0261C109.647 18.0804 109.599 18.138 109.545 18.199C109.498 18.2532 109.45 18.3075 109.403 18.3617C109.355 18.416 109.328 18.4499 109.321 18.4634C109.064 18.7482 108.884 19.0838 108.782 19.4702C108.721 19.7414 108.677 20.016 108.65 20.294C108.63 20.5652 108.62 20.8432 108.62 21.1279Z" fill="white"/>
<path d="M120.6 27.9417L120.01 27.8909C119.956 27.8977 119.925 27.8943 119.918 27.8807C119.912 27.8739 119.905 27.8536 119.898 27.8197C119.891 27.7383 119.888 27.6705 119.888 27.6163C119.895 27.5553 119.891 27.4841 119.878 27.4027C119.871 27.3281 119.854 27.2705 119.827 27.2298C119.8 27.1824 119.783 27.1281 119.776 27.0671C119.769 27.0264 119.766 26.9892 119.766 26.9553C119.766 26.9214 119.783 26.8875 119.817 26.8536C119.83 26.7586 119.837 26.5451 119.837 26.2129C119.837 25.8806 119.83 25.4806 119.817 25.0128C119.803 24.5382 119.786 24.0229 119.766 23.467C119.752 22.9043 119.735 22.3449 119.715 21.789C119.695 21.233 119.678 20.7076 119.664 20.2126C119.651 19.7177 119.644 19.2973 119.644 18.9516C119.651 18.8838 119.647 18.7956 119.634 18.6872C119.62 18.5719 119.603 18.4533 119.583 18.3312C119.569 18.2024 119.556 18.0804 119.542 17.9651C119.528 17.8498 119.528 17.7549 119.542 17.6803C119.542 17.6668 119.539 17.6363 119.532 17.5888C119.532 17.5346 119.528 17.4973 119.522 17.4769C119.488 17.4769 119.467 17.46 119.461 17.4261C119.461 17.3922 119.457 17.3583 119.45 17.3244L119.44 17.243L119.501 17.1413C119.515 16.9651 119.518 16.8159 119.512 16.6939C119.505 16.565 119.495 16.4159 119.481 16.2464C119.481 16.2193 119.478 16.1854 119.471 16.1447C119.471 16.104 119.467 16.0599 119.461 16.0125C119.454 15.965 119.45 15.9108 119.45 15.8498C119.45 15.8362 119.437 15.8057 119.41 15.7582C119.389 15.7108 119.379 15.6803 119.379 15.6667C119.379 15.6532 119.383 15.626 119.389 15.5854C119.403 15.5379 119.413 15.5074 119.42 15.4938C119.42 15.487 119.42 15.4633 119.42 15.4226C119.42 15.3752 119.42 15.3277 119.42 15.2803C119.427 15.2328 119.43 15.1887 119.43 15.148C119.437 15.1074 119.444 15.0802 119.45 15.0667L119.471 15.0463C119.478 15.0396 119.481 15.026 119.481 15.0057C119.712 14.9786 119.935 14.9413 120.152 14.8938C120.369 14.8396 120.593 14.8091 120.823 14.8023C121.101 14.7887 121.369 14.7955 121.627 14.8226C121.884 14.8497 122.149 14.8802 122.42 14.9141C122.454 14.9209 122.501 14.9277 122.562 14.9345C122.63 14.9345 122.695 14.9413 122.756 14.9548C122.823 14.9616 122.885 14.9819 122.939 15.0158C122.993 15.0497 123.024 15.1006 123.03 15.1684C123.044 15.2836 123.037 15.3786 123.01 15.4531C122.99 15.5277 122.986 15.626 123 15.7481V15.7786C123 15.7921 123 15.8023 123 15.8091C123.007 15.8159 123.01 15.8226 123.01 15.8294C123.057 15.8091 123.118 15.782 123.193 15.7481C123.268 15.7074 123.346 15.6667 123.427 15.626C123.508 15.5854 123.586 15.5481 123.661 15.5142C123.742 15.4735 123.803 15.443 123.844 15.4226C123.857 15.4159 123.895 15.3955 123.956 15.3616C124.024 15.3277 124.068 15.304 124.088 15.2904C124.102 15.2904 124.139 15.2836 124.2 15.2701C124.268 15.2497 124.305 15.2328 124.312 15.2192C124.373 15.1786 124.447 15.1379 124.535 15.0972C124.63 15.0565 124.725 15.0192 124.82 14.9853C124.915 14.9447 125 14.9108 125.074 14.8836C125.156 14.8565 125.207 14.8362 125.227 14.8226C125.396 14.7548 125.569 14.7141 125.746 14.7006C125.922 14.687 126.105 14.6768 126.295 14.6701C126.6 14.6497 126.912 14.6735 127.23 14.7413C127.549 14.8091 127.854 14.904 128.146 15.026C128.444 15.1413 128.712 15.2769 128.949 15.4328C129.193 15.582 129.39 15.7311 129.539 15.8803C129.586 15.9345 129.637 16.0023 129.692 16.0837C129.753 16.1583 129.807 16.2396 129.854 16.3278C129.908 16.4091 129.953 16.4905 129.986 16.5718C130.027 16.6532 130.051 16.7278 130.058 16.7956C130.058 16.8362 130.037 16.8905 129.997 16.9583C129.956 17.0193 129.905 17.0837 129.844 17.1515C129.79 17.2193 129.732 17.2803 129.671 17.3346C129.617 17.3888 129.576 17.4227 129.549 17.4363C129.542 17.443 129.525 17.4566 129.498 17.4769C129.471 17.4973 129.441 17.5176 129.407 17.538C129.38 17.5583 129.349 17.5786 129.315 17.599C129.288 17.6193 129.271 17.6329 129.264 17.6397C129.237 17.66 129.197 17.6905 129.142 17.7312C129.095 17.7651 129.044 17.8024 128.99 17.8431C128.942 17.8837 128.895 17.921 128.847 17.9549C128.807 17.9888 128.783 18.0092 128.776 18.0159C128.661 18.1041 128.549 18.199 128.441 18.3007C128.339 18.4024 128.227 18.4973 128.105 18.5855C127.99 18.6736 127.864 18.7482 127.729 18.8092C127.6 18.8702 127.454 18.9041 127.291 18.9109H127.088C127.068 18.9041 127.051 18.8973 127.037 18.8906C127.017 18.8838 126.993 18.8736 126.966 18.86C126.688 18.7177 126.393 18.5855 126.081 18.4634C125.769 18.3414 125.457 18.2838 125.146 18.2905C124.915 18.3041 124.725 18.3888 124.576 18.5448C124.427 18.7007 124.288 18.8634 124.159 19.0329C124.146 19.0601 124.108 19.1075 124.047 19.1753C123.986 19.2431 123.949 19.294 123.935 19.3279C123.922 19.355 123.895 19.4024 123.854 19.4702C123.813 19.5313 123.769 19.5991 123.722 19.6736C123.681 19.7482 123.637 19.8262 123.59 19.9075C123.549 19.9821 123.522 20.0431 123.508 20.0906C123.44 20.2465 123.4 20.4194 123.386 20.6093C123.373 20.7991 123.359 20.9788 123.346 21.1483C123.251 21.833 123.207 22.4568 123.213 23.0195C123.227 23.5755 123.264 24.1009 123.325 24.5958C123.359 24.962 123.4 25.3213 123.447 25.6738C123.495 26.0264 123.535 26.3857 123.569 26.7519C123.576 26.7925 123.583 26.8671 123.59 26.9756C123.596 27.0773 123.603 27.1858 123.61 27.301C123.624 27.4095 123.634 27.518 123.64 27.6265C123.654 27.7282 123.661 27.7993 123.661 27.84C123.647 27.8468 123.634 27.8536 123.62 27.8604C123.613 27.8671 123.603 27.8739 123.59 27.8807L123.549 27.901H123.488C123.474 27.901 123.454 27.8943 123.427 27.8807C123.4 27.8739 123.379 27.8638 123.366 27.8502L120.6 27.9417Z" fill="white"/>
<path d="M130.271 23.0297C130.271 22.9754 130.281 22.9246 130.302 22.8771C130.322 22.8297 130.332 22.7788 130.332 22.7246C130.332 22.5144 130.322 22.311 130.302 22.1144C130.281 21.911 130.271 21.7042 130.271 21.494V21.0771C130.292 20.6432 130.322 20.2262 130.363 19.8262C130.41 19.4262 130.475 19.0363 130.556 18.6566C130.644 18.2702 130.753 17.8905 130.881 17.5176C131.017 17.1447 131.183 16.7684 131.38 16.3888C131.387 16.3752 131.403 16.3413 131.431 16.2871C131.464 16.2261 131.495 16.165 131.522 16.104C131.556 16.0362 131.587 15.9752 131.614 15.921C131.641 15.8599 131.658 15.8226 131.664 15.8091C131.678 15.7887 131.709 15.7481 131.756 15.6871C131.803 15.626 131.837 15.5887 131.858 15.5752C131.885 15.5413 131.932 15.4904 132 15.4226C132.068 15.3548 132.136 15.287 132.203 15.2192C132.271 15.1514 132.332 15.0904 132.387 15.0362C132.448 14.9819 132.485 14.948 132.498 14.9345C132.505 14.9277 132.526 14.9108 132.559 14.8836C132.6 14.8565 132.644 14.8294 132.692 14.8023C132.746 14.7684 132.797 14.7379 132.844 14.7107C132.892 14.6768 132.929 14.6531 132.956 14.6396C132.983 14.626 133.02 14.6057 133.068 14.5785C133.115 14.5514 133.163 14.5277 133.21 14.5073C133.258 14.4802 133.302 14.4599 133.343 14.4463C133.39 14.426 133.42 14.4158 133.434 14.4158C133.475 14.3955 133.553 14.365 133.668 14.3243C133.783 14.2768 133.905 14.2328 134.034 14.1921C134.17 14.1446 134.295 14.1039 134.41 14.07C134.526 14.0361 134.61 14.0124 134.665 13.9989C134.692 13.9921 134.732 13.9819 134.787 13.9683C134.841 13.9548 134.899 13.9412 134.96 13.9277C135.021 13.9141 135.078 13.9039 135.132 13.8972C135.193 13.8836 135.234 13.8734 135.254 13.8666H135.793C136.044 13.8666 136.268 13.887 136.465 13.9277C136.661 13.9683 136.878 14.0226 137.116 14.0904C137.38 14.1378 137.638 14.209 137.888 14.304C138.139 14.3921 138.38 14.4972 138.611 14.6192C138.848 14.7345 139.075 14.8565 139.292 14.9853C139.509 15.1074 139.716 15.2226 139.912 15.3311C139.919 15.3243 139.926 15.304 139.933 15.2701C139.939 15.2294 139.946 15.1887 139.953 15.148C139.96 15.1006 139.963 15.0565 139.963 15.0158C139.97 14.9752 139.973 14.948 139.973 14.9345V14.8531C139.973 14.5345 139.963 14.2192 139.943 13.9073C139.922 13.5887 139.912 13.27 139.912 12.9514V12.5344C139.919 12.4598 139.922 12.3581 139.922 12.2293C139.922 12.1005 139.919 11.9683 139.912 11.8327C139.912 11.6971 139.909 11.5716 139.902 11.4564C139.902 11.3344 139.902 11.2462 139.902 11.192C139.916 11.1106 139.936 11.0293 139.963 10.9479C139.99 10.8598 140.004 10.8089 140.004 10.7954L140.065 10.7343C140.126 10.7276 140.187 10.7208 140.248 10.714C140.302 10.7072 140.353 10.7004 140.4 10.6937C140.448 10.6869 140.489 10.6801 140.522 10.6733C140.753 10.6598 140.953 10.6496 141.122 10.6428C141.299 10.636 141.485 10.6326 141.682 10.6326C141.851 10.6326 142.004 10.6292 142.139 10.6225C142.282 10.6089 142.417 10.5987 142.546 10.592C142.682 10.5852 142.817 10.5852 142.953 10.592C143.095 10.592 143.248 10.6055 143.411 10.6326C143.567 10.7208 143.655 10.8191 143.675 10.9276C143.675 10.9411 143.675 10.975 143.675 11.0293C143.682 11.0767 143.685 11.1276 143.685 11.1818C143.685 11.236 143.685 11.2903 143.685 11.3445C143.692 11.392 143.695 11.4259 143.695 11.4462C143.695 11.4801 143.692 11.5276 143.685 11.5886C143.685 11.6428 143.685 11.6971 143.685 11.7513C143.685 11.8056 143.682 11.8564 143.675 11.9039C143.675 11.9445 143.675 11.9683 143.675 11.9751C143.662 12.3344 143.651 12.6836 143.645 13.0225C143.645 13.3548 143.645 13.687 143.645 14.0192C143.645 14.3446 143.641 14.6768 143.634 15.0158C143.628 15.3481 143.617 15.6938 143.604 16.0532C143.59 16.4396 143.573 16.8532 143.553 17.2939C143.539 17.7278 143.533 18.138 143.533 18.5244C143.533 18.5787 143.533 18.7007 143.533 18.8906C143.539 19.0804 143.543 19.2872 143.543 19.5109C143.55 19.7279 143.553 19.9347 143.553 20.1313C143.56 20.3211 143.563 20.4432 143.563 20.4974C143.563 20.5042 143.56 20.5381 143.553 20.5991C143.553 20.6601 143.553 20.7347 143.553 20.8228C143.553 20.9042 143.55 20.9889 143.543 21.0771C143.543 21.1652 143.543 21.233 143.543 21.2805C143.543 21.3347 143.543 21.4059 143.543 21.494C143.55 21.5822 143.553 21.6703 143.553 21.7585C143.553 21.8466 143.553 21.928 143.553 22.0025C143.56 22.0703 143.563 22.1076 143.563 22.1144C143.563 22.1347 143.556 22.1822 143.543 22.2568C143.536 22.3314 143.526 22.4093 143.512 22.4907C143.506 22.572 143.495 22.65 143.482 22.7246C143.475 22.7924 143.472 22.8365 143.472 22.8568C143.478 22.8907 143.478 22.9619 143.472 23.0704C143.472 23.1788 143.468 23.2941 143.462 23.4161C143.455 23.5382 143.448 23.6568 143.441 23.7721C143.441 23.8806 143.441 23.9551 143.441 23.9958C143.441 24.0297 143.438 24.1213 143.431 24.2704C143.431 24.4196 143.428 24.5789 143.421 24.7484C143.421 24.9179 143.417 25.0772 143.411 25.2264C143.411 25.3755 143.411 25.4671 143.411 25.501C143.411 25.5145 143.411 25.5552 143.411 25.623C143.417 25.684 143.421 25.7586 143.421 25.8467C143.421 25.9349 143.421 26.023 143.421 26.1112C143.428 26.1993 143.431 26.2671 143.431 26.3146C143.431 26.3484 143.428 26.4196 143.421 26.5281C143.421 26.6298 143.421 26.7417 143.421 26.8637C143.421 26.9858 143.417 27.101 143.411 27.2095C143.411 27.318 143.411 27.3858 143.411 27.4129C143.397 27.5553 143.316 27.657 143.167 27.718C143.017 27.779 142.851 27.8163 142.668 27.8299C142.485 27.8434 142.312 27.8468 142.15 27.84C141.994 27.8332 141.902 27.8366 141.875 27.8502C141.78 27.8502 141.678 27.8502 141.57 27.8502C141.461 27.8502 141.36 27.8705 141.265 27.9112H139.973L139.872 27.7993L139.75 26.8027C139.472 27.0603 139.177 27.2603 138.865 27.4027C138.553 27.5451 138.251 27.657 137.96 27.7383C137.675 27.8129 137.41 27.8604 137.166 27.8807C136.922 27.9078 136.729 27.9282 136.587 27.9417H136.261C136.16 27.9349 136.024 27.9282 135.854 27.9214C135.692 27.9146 135.522 27.9078 135.346 27.901C135.176 27.901 135.021 27.8977 134.878 27.8909C134.743 27.8841 134.651 27.8773 134.604 27.8705C134.556 27.8638 134.482 27.8502 134.38 27.8299C134.278 27.8027 134.17 27.779 134.054 27.7587C133.946 27.7316 133.841 27.7044 133.739 27.6773C133.644 27.6502 133.58 27.6299 133.546 27.6163C133.526 27.6095 133.482 27.5926 133.414 27.5654C133.346 27.5315 133.275 27.4976 133.2 27.4637C133.126 27.4231 133.054 27.3858 132.987 27.3519C132.926 27.3112 132.881 27.2807 132.854 27.2603C132.82 27.24 132.763 27.2027 132.681 27.1485C132.6 27.0942 132.512 27.0366 132.417 26.9756C132.329 26.9146 132.248 26.8569 132.173 26.8027C132.098 26.7485 132.048 26.7078 132.02 26.6807C131.98 26.6332 131.942 26.5891 131.909 26.5485C131.875 26.5146 131.841 26.4773 131.807 26.4366C131.773 26.3959 131.746 26.3654 131.726 26.3451C131.563 26.1281 131.427 25.9145 131.319 25.7044C131.217 25.4874 131.105 25.2501 130.983 24.9925C130.909 24.8365 130.831 24.6738 130.749 24.5043C130.668 24.328 130.607 24.1585 130.566 23.9958C130.559 23.9823 130.546 23.9382 130.525 23.8636C130.512 23.789 130.495 23.7077 130.475 23.6195C130.461 23.5314 130.444 23.45 130.424 23.3755C130.41 23.3009 130.4 23.2568 130.393 23.2433C130.38 23.2297 130.359 23.1992 130.332 23.1517C130.305 23.1043 130.285 23.0738 130.271 23.0602V23.0297ZM134.96 23.467C134.96 23.4738 134.976 23.4975 135.01 23.5382C135.044 23.5789 135.085 23.6229 135.132 23.6704C135.18 23.7178 135.231 23.7687 135.285 23.8229C135.339 23.8704 135.383 23.9077 135.417 23.9348C135.431 23.9484 135.468 23.9687 135.529 23.9958C135.59 24.0229 135.627 24.0433 135.641 24.0568C135.654 24.0704 135.685 24.0907 135.732 24.1179C135.787 24.145 135.821 24.1653 135.834 24.1789C135.854 24.1924 135.892 24.2128 135.946 24.2399C136.007 24.267 136.044 24.2806 136.058 24.2806C136.173 24.328 136.271 24.3518 136.353 24.3518C136.441 24.3518 136.553 24.3518 136.688 24.3518C137.021 24.3518 137.349 24.2975 137.675 24.1891C138.007 24.0806 138.349 23.9077 138.702 23.6704C138.763 23.6161 138.827 23.5653 138.895 23.5178C138.97 23.4704 139.034 23.4195 139.088 23.3653C139.088 23.3585 139.105 23.3348 139.139 23.2941C139.173 23.2534 139.211 23.2094 139.251 23.1619C139.299 23.1077 139.339 23.0602 139.373 23.0195C139.414 22.9788 139.438 22.9517 139.444 22.9382C139.458 22.911 139.482 22.8636 139.516 22.7958C139.556 22.728 139.594 22.6568 139.627 22.5822C139.668 22.5076 139.705 22.4398 139.739 22.3788C139.78 22.311 139.807 22.2602 139.821 22.2263C139.841 22.172 139.855 22.1314 139.861 22.1042C139.875 22.0703 139.882 22.0263 139.882 21.972L139.922 21.8398C139.943 21.7788 139.97 21.6839 140.004 21.5551C140.038 21.4195 140.085 21.233 140.146 20.9957C140.146 20.9822 140.153 20.9347 140.166 20.8533C140.18 20.7652 140.194 20.694 140.207 20.6398C140.214 20.6059 140.217 20.5516 140.217 20.4771C140.224 20.4025 140.228 20.3211 140.228 20.233V19.9075C140.228 19.8872 140.224 19.8465 140.217 19.7855C140.217 19.7245 140.214 19.6601 140.207 19.5923C140.2 19.5245 140.194 19.4601 140.187 19.399C140.18 19.338 140.173 19.294 140.166 19.2668C140.166 19.2533 140.16 19.2329 140.146 19.2058C140.133 19.1787 140.119 19.1584 140.105 19.1448C140.092 19.1312 140.068 19.1075 140.034 19.0736C140.007 19.0329 139.973 18.9923 139.933 18.9516C139.899 18.9041 139.861 18.86 139.821 18.8194C139.787 18.7787 139.763 18.7482 139.75 18.7278C139.56 18.5312 139.35 18.3516 139.119 18.1888C138.895 18.0261 138.655 17.8905 138.397 17.782C138.383 17.782 138.349 17.7753 138.295 17.7617C138.268 17.7549 138.244 17.7481 138.224 17.7414H136.831C136.797 17.6803 136.766 17.6464 136.739 17.6397C136.719 17.6261 136.682 17.6193 136.627 17.6193C136.505 17.6193 136.373 17.6329 136.231 17.66C136.088 17.6871 135.949 17.7312 135.814 17.7922C135.678 17.8465 135.549 17.9142 135.427 17.9956C135.305 18.0702 135.204 18.1583 135.122 18.26C135.109 18.2804 135.078 18.3244 135.031 18.3922C134.99 18.4533 134.939 18.5244 134.878 18.6058C134.824 18.6872 134.77 18.7685 134.715 18.8499C134.668 18.9245 134.631 18.9787 134.604 19.0126C134.604 19.0262 134.593 19.0499 134.573 19.0838C134.553 19.1109 134.543 19.1312 134.543 19.1448C134.427 19.3482 134.319 19.5516 134.217 19.755C134.122 19.9516 134.058 20.1753 134.024 20.4262C134.017 20.4601 134.01 20.5143 134.004 20.5889C133.997 20.6567 133.99 20.7313 133.983 20.8127C133.976 20.894 133.97 20.9686 133.963 21.0364C133.963 21.1042 133.963 21.1517 133.963 21.1788C133.963 21.1991 133.97 21.25 133.983 21.3313C133.997 21.4059 134.01 21.4534 134.024 21.4737C134.044 21.5347 134.075 21.6262 134.115 21.7483C134.156 21.8703 134.197 21.9958 134.237 22.1246C134.278 22.2466 134.315 22.3619 134.349 22.4703C134.383 22.572 134.407 22.6365 134.421 22.6636L134.96 23.467Z" fill="white"/>
<path d="M9.21389 30.4608L4.08828 13.4822V30.4608H0V9.63797H7.59688L11.2428 22.1011L15.087 9.63797H22.6991V30.4608H17.7871V13.4822L12.5547 30.4608H9.21389Z" fill="#00453A"/>
<path d="M40.1353 30.4608H35.7267C35.5843 29.8506 35.5131 29.0471 35.5131 28.0505C34.7402 29.1488 33.9673 29.8811 33.1944 30.2472C32.4317 30.6031 31.5621 30.7811 30.5858 30.7811C29.1417 30.7811 27.9722 30.3896 27.0772 29.6065C26.1925 28.8234 25.7501 27.7708 25.7501 26.4487C25.7501 25.4826 26.0094 24.5927 26.5281 23.7792C27.0467 22.9656 27.8807 22.33 29.0299 21.8723C30.179 21.4045 32.274 21.0587 35.3148 20.835V19.9502C35.3148 18.4552 34.5673 17.7078 33.0724 17.7078C31.4757 17.7078 30.5858 18.4552 30.4028 19.9502L26.2077 19.5536C26.4823 17.8044 27.3111 16.5636 28.6942 15.8314C30.0774 15.0992 31.6435 14.7331 33.3927 14.7331C34.4402 14.7331 35.4267 14.8551 36.3522 15.0992C37.2776 15.3433 37.9997 15.7094 38.5183 16.1975C39.037 16.6857 39.3879 17.2043 39.5709 17.7535C39.754 18.2925 39.8455 19.2383 39.8455 20.5909V27.5776C39.8455 28.92 39.9421 29.8811 40.1353 30.4608ZM35.3148 23.0774C32.1317 23.3927 30.5401 24.3538 30.5401 25.9606C30.5401 26.4996 30.7079 26.9674 31.0435 27.364C31.3791 27.7505 31.8571 27.9437 32.4774 27.9437C33.2809 27.9437 33.9521 27.6132 34.4911 26.9522C35.0402 26.2809 35.3148 25.4572 35.3148 24.4809V23.0774Z" fill="#00453A"/>
<path d="M48.7238 18.5925V25.1063C48.7238 25.9199 48.8458 26.464 49.0899 26.7386C49.334 27.0132 49.9086 27.1505 50.8137 27.1505C51.2307 27.1505 51.7137 27.1301 52.2629 27.0894V30.4608C50.9408 30.6845 49.9899 30.7964 49.4102 30.7964C47.5187 30.7964 46.1762 30.4353 45.383 29.7133C44.5897 28.981 44.1931 27.664 44.1931 25.7623V18.5925H41.7523V15.0534H44.4524L44.8186 10.5075L48.7238 10.2024V15.0534H52.0493V18.5925H48.7238Z" fill="#00453A"/>
<path d="M59.0055 9.63797V17.1586C59.8394 15.5416 61.2276 14.7331 63.1701 14.7331C64.2074 14.7331 65.0922 14.9619 65.8244 15.4195C66.5668 15.867 67.0855 16.4467 67.3804 17.1586C67.6855 17.8705 67.838 18.9129 67.838 20.2858V30.4608H63.3074V21.7808C63.3074 20.7435 63.2667 20.0316 63.1853 19.6451C63.104 19.2587 62.9158 18.9383 62.6209 18.6841C62.3361 18.4196 61.9751 18.2874 61.5378 18.2874C60.9683 18.2874 60.4039 18.5112 59.8445 18.9586C59.2852 19.396 59.0055 20.3367 59.0055 21.7808V30.4608H54.5969V9.63797H59.0055Z" fill="#00453A"/>
</svg>
